<svg width="104" height="104" fill="none" xmlns="http://www.w3.org/2000/svg"><path clip-rule="evenodd" d="m61.703 44.501-12.23 12.474-8.999-9.177-4.499 4.589 13.497 13.766L70.08 45.137l-4.5-4.589-3.876 3.953Z" stroke="#62E0D9" stroke-width="3.064"/><path clip-rule="evenodd" d="M74.916 18.85c-5.342 0-10.653-1.136-15.482-3.484-2.313-1.114-4.679-2.533-6.724-4.302-2.045 1.769-4.411 3.188-6.725 4.302-4.828 2.348-10.138 3.484-15.48 3.484h-10.59v40.59c0 7.11 2.816 13.945 7.826 18.893 7.356 7.25 24.97 16.674 24.97 16.674s17.612-9.424 24.968-16.674c5.01-4.948 7.827-11.784 7.827-18.893V18.85h-10.59Z" stroke="#62E0D9" stroke-width="3.064"/><path clip-rule="evenodd" d="M76.94 33.532v26.249c0 4.742-1.903 9.34-5.218 12.615-4.613 4.547-15.128 10.77-19.01 13-3.887-2.233-14.411-8.463-19.018-13.004-3.314-3.272-5.214-7.869-5.214-12.611V27.927h2.024c6.707 0 13.335-1.498 19.166-4.333a44.289 44.289 0 0 0 3.041-1.61c.973.565 2 1.11 3.064 1.623 5.815 2.826 12.434 4.32 19.141 4.32h2.024v5.605Z" stroke="#62E0D9" stroke-width="3.064"/></svg>