<svg width="104" height="104" fill="none" xmlns="http://www.w3.org/2000/svg"><path d="m69.635 23.7.46-.46-.46.46Zm-.918.001.46.46-.46-.46Zm5.228 4.3.46-.46-.46.46Zm.191.46h.65-.65Zm-.19.46-.46-.46.46.46Zm-29.45 29.4-.46-.46.46.46Zm-5.227 0 .46-.46-.46.46Zm0 0 .459-.46-.46.46Zm-13.08-13.057-.46.46.46-.46Zm0-.92-.46-.46.46.46Zm4.308-4.3-.46-.46.46.46Zm.918 0 .46-.46-.46.46ZM41.881 50.49l-.46.46a.65.65 0 0 0 .92 0l-.46-.46Zm.46 1.379.459.46-.46-.46Zm26.835-26.79.46-.46a.65.65 0 0 0-.919 0l.46.46ZM41.422 51.87l-.46.46.46-.46ZM30.956 41.422l.46-.46a.65.65 0 0 0-.92 0l.46.46Zm-3.388 3.382-.459-.46a.65.65 0 0 0 0 .92l.46-.46ZM40.188 57.4l-.46.46v.001l.46-.46Zm0 .001.46-.46h-.001l-.459.46Zm3.389 0 .459.46-.46-.46Zm28.989-28.94.46.46a.65.65 0 0 0-.001-.92l-.46.46Zm-7.053-.57-.478.442.478-.441Zm.04.05.518-.394-.518.393Zm3.696 4.875-.518.393.518-.393Zm.036.053-.554.34.554-.34Zm-1.09.707.553-.34a.63.63 0 0 0-.036-.052l-.518.392Zm-3.659-4.825.518-.393a.633.633 0 0 0-.04-.049l-.478.442Zm-3.354 3.427-.481.437.481-.437Zm.05.062-.531.375.53-.375Zm3.566 5.044-.53.376.53-.376Zm.042.068-.573.307.573-.307Zm-1.127.65.573-.307a.661.661 0 0 0-.042-.068l-.53.375Zm-3.52-4.98.53-.375a.668.668 0 0 0-.05-.062l-.48.438Zm-15.996-4.685a1.3 1.3 0 0 0-1.3-1.3v1.3h1.3Zm0 2.027v-2.027h-1.3v2.027h1.3Zm-1.3 1.3a1.3 1.3 0 0 0 1.3-1.3h-1.3v1.3Zm-1.3-1.3a1.3 1.3 0 0 0 1.3 1.3v-1.3h-1.3Zm0-2.027v2.027h1.3v-2.027h-1.3Zm1.3-1.3a1.3 1.3 0 0 0-1.3 1.3h1.3v-1.3Zm1.3 41.851a1.3 1.3 0 0 0-1.3-1.3v1.3h1.3Zm0 2.028v-2.028h-1.3v2.028h1.3Zm-1.3 1.3a1.3 1.3 0 0 0 1.3-1.3h-1.3v1.3Zm-1.3-1.3a1.3 1.3 0 0 0 1.3 1.3v-1.3h-1.3Zm0-2.028v2.028h1.3v-2.028h-1.3Zm1.3-1.3a1.3 1.3 0 0 0-1.3 1.3h1.3v-1.3Zm18.279-18.248a1.3 1.3 0 0 0-1.3 1.3h1.3v-1.3Zm2.031 0h-2.031v1.3h2.031v-1.3Zm1.3 1.3a1.3 1.3 0 0 0-1.3-1.3v1.3h1.3Zm-1.3 1.3a1.3 1.3 0 0 0 1.3-1.3h-1.3v1.3Zm-2.031 0h2.031v-1.3h-2.031v1.3Zm-1.3-1.3a1.3 1.3 0 0 0 1.3 1.3v-1.3h-1.3Zm-39.32-1.3a1.3 1.3 0 0 0-1.3 1.3h1.3v-1.3Zm2.03 0h-2.03v1.3h2.03v-1.3Zm1.3 1.3a1.3 1.3 0 0 0-1.3-1.3v1.3h1.3Zm-1.3 1.3a1.3 1.3 0 0 0 1.3-1.3h-1.3v1.3Zm-2.03 0h2.03v-1.3h-2.03v1.3Zm-1.3-1.3a1.3 1.3 0 0 0 1.3 1.3v-1.3h-1.3Zm50.838-27.4a1.3 1.3 0 0 0-1.836 0l.918.92.918-.92Zm4.31 4.3-4.31-4.3-.918.92 4.31 4.3.918-.92Zm.382.92a1.3 1.3 0 0 0-.382-.92l-.918.92h1.3Zm-.382.92a1.3 1.3 0 0 0 .382-.92h-1.3l.918.92Zm-29.45 29.4 29.45-29.4-.918-.92-29.45 29.4.919.92Zm-3.073 1.27a4.34 4.34 0 0 0 3.074-1.27l-.919-.92a3.04 3.04 0 0 1-2.155.89v1.3Zm-3.072-1.27a4.332 4.332 0 0 0 3.072 1.27v-1.3c-.78 0-1.56-.296-2.153-.89l-.92.92Zm0 0 .92-.92h-.001l-.92.92Zm-13.08-13.057L38.81 58.78l.918-.92-13.079-13.057-.918.92Zm-.38-.92c0 .345.137.676.38.92l.92-.92h-1.3Zm.38-.92a1.3 1.3 0 0 0-.38.92h1.3l-.92-.92Zm4.309-4.3-4.308 4.3.918.92 4.308-4.3-.918-.92Zm1.837 0a1.3 1.3 0 0 0-1.837 0l.918.92.919-.92ZM42.34 50.03 31.875 39.583l-.919.92 10.466 10.448.918-.92Zm25.918-26.79-26.836 26.79.918.92 26.836-26.79-.918-.92ZM42.8 52.33l26.835-26.79-.918-.92-26.836 26.79.919.92Zm-1.837 0a1.3 1.3 0 0 0 1.837 0l-.919-.92-.918.92ZM30.497 41.882 40.963 52.33l.918-.92-10.466-10.448-.918.92Zm-2.47 3.382 3.388-3.382-.918-.92-3.388 3.382.918.92Zm12.62 11.677-12.62-12.597-.918.92L39.73 57.86l.918-.92Zm0 0h-.001l-.917.921.918-.92Zm1.234.51c-.451 0-.895-.17-1.233-.508l-.92.918c.593.594 1.373.89 2.153.89v-1.3Zm1.237-.51c-.341.34-.786.51-1.237.51v1.3c.78 0 1.56-.296 2.155-.89l-.918-.92Zm28.989-28.94-28.99 28.94.919.92 28.99-28.94-.92-.92Zm-3.39-2.462 3.39 3.383.918-.92-3.39-3.383-.918.92ZM41.881 16.9C23.78 16.9 9.1 31.551 9.1 49.627h1.3C10.4 32.271 24.495 18.2 41.881 18.2v-1.3Zm24.11 10.552C60.001 20.965 51.415 16.9 41.88 16.9v1.3c9.158 0 17.402 3.903 23.154 10.134l.955-.882Zm.08.096a1.327 1.327 0 0 0-.08-.096l-.956.882 1.036-.786Zm3.696 4.877-3.696-4.877-1.036.786 3.696 4.876 1.036-.785Zm.072.104a1.284 1.284 0 0 0-.072-.104l-1.036.785 1.108-.68Zm4.823 17.098A32.543 32.543 0 0 0 69.84 32.53l-1.108.681a31.244 31.244 0 0 1 4.631 16.417h1.3Zm-32.78 32.728c18.1 0 32.78-14.652 32.78-32.728h-1.3c0 17.356-14.095 31.428-31.48 31.428v1.3ZM9.1 49.627c0 18.076 14.68 32.728 32.781 32.728v-1.3c-17.386 0-31.481-14.072-31.481-31.428H9.1Zm2.6 0C11.7 32.991 25.211 19.5 41.881 19.5v-1.3C24.495 18.2 10.4 32.271 10.4 49.627h1.3Zm30.181 30.128c-16.67 0-30.181-13.492-30.181-30.128h-1.3c0 17.356 14.095 31.428 31.481 31.428v-1.3Zm30.181-30.128c0 16.636-13.511 30.128-30.18 30.128v1.3c17.385 0 31.48-14.072 31.48-31.428h-1.3Zm-4.422-15.71a29.943 29.943 0 0 1 4.422 15.71h1.3a31.244 31.244 0 0 0-4.614-16.39l-1.108.68Zm-3.622-4.773 3.658 4.826 1.036-.785-3.658-4.826-1.036.785ZM41.881 19.5c8.77 0 16.663 3.731 22.178 9.693l.954-.883c-5.75-6.217-13.986-10.11-23.132-10.11v1.3Zm0 3.483c-14.738 0-26.688 11.926-26.688 26.644h1.3c0-13.998 11.366-25.344 25.388-25.344v-1.3Zm19.782 8.76c-4.88-5.379-11.938-8.76-19.782-8.76v1.3a25.346 25.346 0 0 1 18.82 8.333l.962-.874Zm.1.123a1.3 1.3 0 0 0-.1-.124l-.962.874 1.061-.75Zm3.566 5.044-3.567-5.044-1.061.75 3.566 5.045 1.062-.75Zm.083.135a1.293 1.293 0 0 0-.083-.135l-1.062.75 1.145-.615Zm3.157 12.582c0-4.549-1.142-8.833-3.157-12.582l-1.145.616a25.203 25.203 0 0 1 3.002 11.966h1.3ZM41.881 76.272c14.738 0 26.688-11.926 26.688-26.645h-1.3c0 13.999-11.366 25.345-25.388 25.345v1.3ZM15.193 49.627c0 14.719 11.95 26.645 26.688 26.645v-1.3c-14.022 0-25.388-11.346-25.388-25.345h-1.3Zm2.6 0c0-13.278 10.782-24.044 24.088-24.044v-1.3c-14.022 0-25.388 11.346-25.388 25.344h1.3Zm24.088 24.045c-13.306 0-24.088-10.766-24.088-24.045h-1.3c0 13.999 11.366 25.345 25.388 25.345v-1.3ZM65.97 49.627c0 13.279-10.781 24.045-24.088 24.045v1.3c14.022 0 25.388-11.346 25.388-25.345h-1.3ZM63.14 38.31a23.903 23.903 0 0 1 2.829 11.317h1.3c0-4.314-1.08-8.375-2.983-11.93l-1.146.613Zm-3.478-4.911 3.52 4.98 1.062-.751-3.52-4.98-1.062.751Zm-17.78-7.816a24.046 24.046 0 0 1 17.83 7.878l.961-.875a25.346 25.346 0 0 0-18.792-8.303v1.3Z" fill="#62E0D9"/><path clip-rule="evenodd" d="M64.368 57.484c0 2.48-2.015 4.49-4.498 4.49a4.494 4.494 0 0 1-4.497-4.49c0-2.48 2.015-4.49 4.497-4.49a4.494 4.494 0 0 1 4.498 4.49Z" stroke="#62E0D9" stroke-width="1.3" stroke-linejoin="round"/><path clip-rule="evenodd" d="M59.87 61.974c-1.898 0-3.612.583-4.839 1.154a3.34 3.34 0 0 0-1.907 3.033v7.037a2.248 2.248 0 0 0 2.249 2.245v8.979a2.247 2.247 0 0 0 2.249 2.245h4.497a2.247 2.247 0 0 0 2.249-2.245v-8.98a2.248 2.248 0 0 0 2.248-2.244V66.16c0-1.293-.733-2.485-1.907-3.033-1.226-.57-2.94-1.154-4.839-1.154Z" stroke="#62E0D9" stroke-width="1.3" stroke-linecap="round" stroke-linejoin="round"/><path clip-rule="evenodd" d="M77.86 57.484c0 2.48-2.014 4.49-4.498 4.49a4.493 4.493 0 0 1-4.497-4.49c0-2.48 2.014-4.49 4.497-4.49a4.493 4.493 0 0 1 4.498 4.49Z" stroke="#62E0D9" stroke-width="1.3" stroke-linejoin="round"/><path clip-rule="evenodd" d="M73.362 61.974c-1.898 0-3.612.583-4.839 1.154a3.34 3.34 0 0 0-1.907 3.033v7.037a2.247 2.247 0 0 0 2.249 2.245v8.979a2.248 2.248 0 0 0 2.249 2.245h4.497a2.247 2.247 0 0 0 2.248-2.245v-8.98a2.247 2.247 0 0 0 2.25-2.244V66.16a3.34 3.34 0 0 0-1.908-3.033c-1.226-.57-2.941-1.154-4.839-1.154Z" stroke="#62E0D9" stroke-width="1.3" stroke-linecap="round" stroke-linejoin="round"/><path clip-rule="evenodd" d="M91.351 57.484c0 2.48-2.013 4.49-4.497 4.49a4.493 4.493 0 0 1-4.497-4.49c0-2.48 2.013-4.49 4.497-4.49a4.493 4.493 0 0 1 4.497 4.49Z" stroke="#62E0D9" stroke-width="1.3" stroke-linejoin="round"/><path clip-rule="evenodd" d="M86.854 61.974c-1.898 0-3.612.583-4.839 1.154a3.34 3.34 0 0 0-1.907 3.033v7.037a2.247 2.247 0 0 0 2.249 2.245v8.979a2.248 2.248 0 0 0 2.248 2.245h4.498a2.247 2.247 0 0 0 2.248-2.245v-8.98a2.247 2.247 0 0 0 2.249-2.244V66.16c0-1.293-.733-2.485-1.907-3.033-1.227-.57-2.941-1.154-4.839-1.154Z" stroke="#62E0D9" stroke-width="1.3" stroke-linecap="round" stroke-linejoin="round"/></svg>